<?xml version="1.0" encoding="UTF-8"?>
<svg id="Layer_1" data-name="Layer 1" xmlns="http://www.w3.org/2000/svg" xmlns:xlink="http://www.w3.org/1999/xlink" viewBox="0 0 1163.47 1102.91">
  <defs>
    <style>
      .cls-1 {
        clip-path: url(#clippath);
      }

      .cls-2 {
        fill: none;
      }

      .cls-2, .cls-3, .cls-4, .cls-5, .cls-6, .cls-7, .cls-8 {
        stroke-width: 0px;
      }

      .cls-3 {
        opacity: .8;
      }

      .cls-3, .cls-4, .cls-7 {
        fill: #fcd084;
      }

      .cls-9 {
        clip-path: url(#clippath-1);
      }

      .cls-10 {
        clip-path: url(#clippath-2);
      }

      .cls-4 {
        opacity: .45;
      }

      .cls-5 {
        fill: #fab53d;
        opacity: .5;
      }

      .cls-6 {
        fill: #fbc970;
        opacity: .56;
      }

      .cls-7 {
        opacity: .3;
      }

      .cls-8 {
        fill: #d85414;
      }
    </style>
    <clipPath id="clippath">
      <path class="cls-2" d="M568.13,347.67c15.99-70.21-67.62-69.53-96.05-141.26-43.37-109.42,78.65-167.21,154-175.86,19.81-2.27,27.84.56,7.72,11.86-26.87,15.09-140.86,92.25,45.21,177.09,5.95,2.71,4.93-.79,3.31-2.04-22.05-16.98-66.28-79.78,8.27-112.81,16.72-7.41,17.49-2.13,5.7,14.33-20.58,28.71-7.09,68.36,86.65,102.56,99.33,36.25,138.78,117.73,115.22,170.05-29.5,65.51-93.78,65.83-107.78,126.52-10.66,46.19,35.28,79.28,43,83.17,5.8,2.92,6.2,3.24,5.79-.93-.41-4.17-36.11-103.37,100.34-125.96,14.15-2.34-3.51,6.69-16.09,16.05-53.77,39.98-3.99,93.44,12.51,110.85,51.09,53.91,128.86,82.93,125.7,169-2.57,70.15-87.3,218.19-366.81,203.77-35.74-1.84-100.78-12.67-98.13-18.77,1.96-4.52,37.4,1.84,97.72-9.82,121.7-23.52,335.24-168.51,81.64-288.05-30.48-14.37-178.63-89.9-47.41-202.65,11.97-10.29-3.31-11.11-29.22,1.48-25.91,12.6-93.91,49.64-90.42,125.22,2.21,47.92,36.02,62.98,87.29,95.21,51.27,32.23,107.87,79.28,96.85,133.37-11.03,54.09-36.94,42.98-40.25,35.94-3.31-7.04-10.5-51.47-71.67-72.99-82.15-28.9-124.6-1.48-200.13-12.6-59.3-8.73-131.76-32.6-122.94-140.04.23-2.81-3.37-3.61-5.13-1.78-18.58,19.38-32.64,44.75-38.7,73.28-11.63,54.73,25.82,143.13,250.63,131.27,62.91-3.32,73.95,19.79,73.81,32.57-.14,12.78-34.73,100.31-269.59,49.92-234.86-50.39-221.26-215.62-117.25-306.51,48.91-42.74,72.94-64.6,91.15-108.18,11.87-28.4,17.83-81.38-21.32-119.51-12.53-12.2-18.37-17.82,11.86-7.07,19.6,6.97,110.23,51.06,104.2,107.81-.55,5.19,16.26.19,18.74-3.7,2.48-3.89,85.83-56.88,43.83-131.52-12.4-22.04-28.14-32.3,15.44-12.78,29.77,13.34,44.11,26.22,47.26,31.24,3.68,5.88,5.05-7.73,5.05-7.73Z"/>
    </clipPath>
    <clipPath id="clippath-1">
      <path class="cls-2" d="M467.4,304.55c62.77,3.88,123.61,68.05,143.69,128.85,2.99,9.06,5.68,17.18,7.9,24.87.39,1.35,3.75,3.51,14.07-3.96,113.72-82.26,99.3-149.3,72.3-173.44-9.65-8.63-25.63-23.68-67.96-39.98-36.54-14.07-64.98-18.3-3.89-9.23,51.62,7.66,93.72,20.04,132.25,49.51,190.37,145.61-159.71,206.96,79.62,355.18,3.3,2.05,5.84-1.85,4.12-5.84-13.27-30.75-33.46-80.68-3.89-159.91,2.04-5.46,183.36-13,172.29-11.06-291.96,51.05-119.68,191.28-63.73,268.66,63.15,87.33,68.31,257.18-281.31,256.57-53.34-.09-160.41-19.28-155.36-21.06,259.69-91.49,242.6-102.19,213.93-165.9-36.49-81.11-191.74-95.02-228.35-140.53-36.61-45.51-8.97-99.57,17.39-154.83,45.76-95.95-32.95-176.67-32.95-176.67l-20.13-21.22Z"/>
    </clipPath>
    <clipPath id="clippath-2">
      <path class="cls-2" d="M809.13,197.66c-62.77,3.88-123.61,68.05-143.69,128.85-2.99,9.06-5.68,17.18-7.9,24.87-.39,1.35-3.75,3.51-14.07-3.96-113.72-82.26-99.3-149.3-72.3-173.44,9.65-8.63,25.63-23.68,67.96-39.98,36.54-14.07,64.98-18.3,3.89-9.23-51.62,7.66-93.72,20.04-132.25,49.51-190.37,145.61,159.71,206.96-79.62,355.18-3.3,2.05-5.84-1.85-4.12-5.84,13.27-30.75,33.46-80.68,3.89-159.91-2.04-5.46-183.36-13-172.29-11.06,291.96,51.05,131.3,201.99,63.73,268.66-85.09,83.96-88.16,283.52,246.28,266.07,92.7-4.84,173.46-92.08,168.41-93.86-259.69-91.49-220.63-38.9-191.96-102.62,36.49-81.11,191.74-95.02,228.35-140.53,36.61-45.51,8.97-99.57-17.39-154.83-45.76-95.95,32.95-176.67,32.95-176.67l20.13-21.22Z"/>
    </clipPath>
  </defs>
  <g id="Flame">
    <g>
      <g class="cls-1">
        <rect class="cls-8" width="1163.47" height="1102.91"/>
        <path class="cls-5" d="M467.4,304.55c62.77,3.88,123.61,68.05,143.69,128.85,2.99,9.06,5.68,17.18,7.9,24.87.39,1.35,3.75,3.51,14.07-3.96,113.72-82.26,99.3-149.3,72.3-173.44-9.65-8.63-25.63-23.68-67.96-39.98-36.54-14.07-64.98-18.3-3.89-9.23,51.62,7.66,93.72,20.04,132.25,49.51,190.37,145.61-159.71,206.96,79.62,355.18,3.3,2.05,5.84-1.85,4.12-5.84-13.27-30.75-33.46-80.68-3.89-159.91,2.04-5.46,184.68-37.43,174.35-34.13-273.06,86.97-90.61,221.87-59.72,305.36,30.89,83.49-7.06,123.83-30.89,148.99-24.02,25.37-94.04,81.7-259.47,84.21-53.33.81-157.44-9.55-152.38-11.33,259.69-91.49,242.6-102.19,213.93-165.9-36.49-81.11-191.74-95.02-228.35-140.53-36.61-45.51-8.97-99.57,17.39-154.83,45.76-95.95-32.95-176.67-32.95-176.67l-20.13-21.22Z"/>
        <g class="cls-9">
          <path class="cls-6" d="M568.99,937.41c4.12,0,212.79-27.68,212.79-27.68l112.8-123.12s16.93-39.71-35.24-136.12c-18.58-34.33-47.36-123.16-47.36-123.16l120.81-75.72s81,6.06,78.25,14.37c-2.75,8.3-67.27,134.69-68.64,143.92s35.69,115.32,42.56,130.08c6.86,14.76,30.2,140.23,4.12,174.36-26.08,34.13-149.64,123.62-226.52,132.85-76.88,9.23-216.91,5.54-232.01-9.23-15.1-14.76,38.44-100.56,38.44-100.56Z"/>
        </g>
        <g class="cls-10">
          <path class="cls-6" d="M707.54,830.53c-4.12,0-212.79-27.68-212.79-27.68l-112.8-123.12s-16.93-39.71,35.24-136.12c18.58-34.33,47.36-123.16,47.36-123.16l-120.81-75.72s-81,6.06-78.25,14.37c2.75,8.3,67.27,134.69,68.64,143.92,1.37,9.23-35.69,115.32-42.56,130.08-6.86,14.76-30.2,140.23-4.12,174.36,26.08,34.13,149.64,123.62,226.52,132.85,76.88,9.23,216.91,5.54,232.01-9.23,15.1-14.76-38.44-100.56-38.44-100.56Z"/>
        </g>
        <path class="cls-3" d="M302.13,338.93c197.76,1.6,128.66,187.95,115.39,230.7-47.95,154.45,81.91,174.05,179.38,206.96,9.95,3.36,45.53,22.76,56.51,28.91,10.98,6.15,46.68,14.76,46.68,14.76,0,0-106.88-13.84-121.5-11.99-14.62,1.85-115.32,9.69-114.4,4.61,9.15-50.71-58.07,11.13-123.59-38.36-97.32-73.5-44.81-155.07,23.37-239.54,79.99-99.08-56.36-179.44-56.36-179.44l-5.49-16.61Z"/>
        <path class="cls-7" d="M285.07,342.08c197.76,1.6,128.66,187.95,115.39,230.7-47.95,154.45,81.91,174.05,179.38,206.96,9.95,3.36,45.53,22.76,56.51,28.91,10.98,6.15,46.68,14.76,46.68,14.76,0,0-106.88-13.84-121.5-11.99-14.62,1.85-115.32,9.69-114.4,4.61,9.15-50.71-58.07,11.13-123.59-38.36-97.32-73.5-44.81-155.07,23.37-239.54,79.99-99.08-56.36-179.44-56.36-179.44l-5.49-16.61Z"/>
        <path class="cls-4" d="M705.44,86.86s-106.85,65.69,33.63,141.46c212.1,114.4,131.79,222.03,125.39,226.33-6.41,4.31,126.3-102.71,124.47-106.4s-66.81-117.13-70.47-117.61c-3.66-.48-125.39-53.99-136.37-60.14-10.98-6.15-46.68-89.79-46.68-89.79l-29.97,6.15Z"/>
        <path class="cls-5" d="M699.01,84.49s-100.69,69.94,46.41,139.82c222.09,105.49,151.7,216.21,145.7,220.77-6,4.56,116.74-107.7,114.58-111.3-2.16-3.61-77.32-114.17-81.02-114.5s-130.05-48.75-141.57-54.43c-11.52-5.69-54.74-87.71-54.74-87.71l-29.36,7.37Z"/>
        <path class="cls-7" d="M773.34,220.92c-113.06-54.55-69.01-109.15-50.13-126.6l-4.04.84s-99.55,62.17,31.34,133.89c187.96,102.99,113.98,206.19,86.18,244.93,6.08-5.27,61.42-56.66,85.5-76.95,6.22-39.55-9.66-108.96-148.85-176.12Z"/>
        <path class="cls-7" d="M706.73,801.49c19.17,42.61,33.15,61.52-37.37,96.73,116.08-48.25,100.83-65.76,78.55-115.26-36.49-81.11-191.74-95.02-228.35-140.53-36.61-45.51,5.21-92.56,31.58-147.83,25.16-52.76,9.19-136.88-94.04-203.42-26.09-25.54,18.12,19.08-14.41,17.07l32.95,15.22s65.9,86.72,20.13,182.66c-26.36,55.27-54,109.32-17.39,154.83,36.61,45.51,191.85,59.43,228.35,140.53Z"/>
        <path class="cls-7" d="M649.07,25.94s-115.32,32.57-132.71,87.95c-14.97,47.69,5.62,78.67,81.52,113.14,75.9,34.47,174.6,62.76,164.67,161.17-7.19,71.25-77.58,79.71-90.61,121.16-17.39,55.35-27.46,85.49,135.45,171.59,39.36,20.8-145.52-78.11-94.27-156.22,24.04-36.64,174.81-103.33,110.74-204.19-51.74-81.46-151.93-97.79-172.98-115.63-21.05-17.84-1.83-178.97-1.83-178.97Z"/>
        <path class="cls-8" d="M769.23,736.57c-100.71-87-205.43-82.74-192.39-161.61,10.52-63.61,69.46-96.62,126.13-120.39,53.52-22.46-83.76,70.24-56.41,104.14,2.94,3.65,83.74,132.85,88.55,136.54,4.8,3.69,40.2,46.58,34.13,41.33Z"/>
      </g>
      <path class="cls-7" d="M636.49,243.2c46.91,22.91,63.62,39.75,71.16,63.81,17.39,55.51-6.41,66.05-86.15,152.24.56,1.82,14.51-5.09,25.58-12.05,67.9-42.71,172.21-109.51,102.22-167.87-36.84-30.71-78.37-40.28-115.78-47.67-72.15-14.23-31.09-5.11,2.97,11.53Z"/>
    </g>
  </g>
</svg>